<mxfile host="app.diagrams.net" modified="2021-12-17T16:30:49.202Z" agent="5.0 (Windows NT 10.0; Win64; x64) AppleWebKit/537.36 (KHTML, like Gecko) Chrome/96.0.4664.45 Safari/537.36 Edg/96.0.1054.29" etag="6aL7CIGnteNyZLjel_9v" version="15.9.6" type="github">
  <diagram id="prtHgNgQTEPvFCAcTncT" name="Page-1">
    <mxGraphModel dx="1357" dy="825" grid="1" gridSize="10" guides="1" tooltips="1" connect="1" arrows="1" fold="1" page="1" pageScale="1" pageWidth="827" pageHeight="1169" math="0" shadow="0">
      <root>
        <mxCell id="0" />
        <mxCell id="1" parent="0" />
        <mxCell id="dNxyNK7c78bLwvsdeMH5-19" value="Pool" style="swimlane;html=1;childLayout=stackLayout;resizeParent=1;resizeParentMax=0;horizontal=0;startSize=20;horizontalStack=0;" parent="1" vertex="1">
          <mxGeometry x="120" y="120" width="760" height="610" as="geometry" />
        </mxCell>
        <mxCell id="dNxyNK7c78bLwvsdeMH5-20" value="SAP Business Objects" style="swimlane;html=1;startSize=20;horizontal=0;" parent="dNxyNK7c78bLwvsdeMH5-19" vertex="1">
          <mxGeometry x="20" width="740" height="150" as="geometry" />
        </mxCell>
        <mxCell id="dNxyNK7c78bLwvsdeMH5-25" value="" style="edgeStyle=orthogonalEdgeStyle;rounded=0;orthogonalLoop=1;jettySize=auto;html=1;" parent="dNxyNK7c78bLwvsdeMH5-20" source="dNxyNK7c78bLwvsdeMH5-23" target="dNxyNK7c78bLwvsdeMH5-24" edge="1">
          <mxGeometry relative="1" as="geometry" />
        </mxCell>
        <mxCell id="dNxyNK7c78bLwvsdeMH5-23" value="Start" style="ellipse;whiteSpace=wrap;html=1;" parent="dNxyNK7c78bLwvsdeMH5-20" vertex="1">
          <mxGeometry x="40" y="55" width="40" height="40" as="geometry" />
        </mxCell>
        <mxCell id="dNxyNK7c78bLwvsdeMH5-24" value="&lt;div style=&quot;text-align: left&quot;&gt;&lt;span&gt;Download data:&lt;/span&gt;&lt;/div&gt;&lt;div style=&quot;text-align: left&quot;&gt;&lt;span&gt;¬asset&lt;/span&gt;&lt;/div&gt;&lt;div style=&quot;text-align: left&quot;&gt;&lt;span&gt;¬cap_tools_data&lt;/span&gt;&lt;/div&gt;&lt;div style=&quot;text-align: left&quot;&gt;&lt;span&gt;¬problem_assets&lt;/span&gt;&lt;/div&gt;" style="rounded=0;whiteSpace=wrap;html=1;fontFamily=Helvetica;fontSize=12;fontColor=#000000;align=center;" parent="dNxyNK7c78bLwvsdeMH5-20" vertex="1">
          <mxGeometry x="120" y="37.5" width="100" height="75" as="geometry" />
        </mxCell>
        <mxCell id="dNxyNK7c78bLwvsdeMH5-21" value="CAP-HPI portfolio valuations" style="swimlane;html=1;startSize=20;horizontal=0;" parent="dNxyNK7c78bLwvsdeMH5-19" vertex="1">
          <mxGeometry x="20" y="150" width="740" height="180" as="geometry" />
        </mxCell>
        <mxCell id="dNxyNK7c78bLwvsdeMH5-26" value="Import files from ¬cap_tools_data:&lt;br&gt;¬port_val_consolidated_miles&lt;br&gt;¬port_val_contract_miles&lt;br&gt;¬port_val_odo_miles" style="rounded=0;whiteSpace=wrap;html=1;fontFamily=Helvetica;fontSize=12;fontColor=#000000;align=left;" parent="dNxyNK7c78bLwvsdeMH5-21" vertex="1">
          <mxGeometry x="85" y="45" width="170" height="90" as="geometry" />
        </mxCell>
        <mxCell id="CKC6Brht2PHoOfjlgTL4-8" value="" style="edgeStyle=orthogonalEdgeStyle;rounded=0;orthogonalLoop=1;jettySize=auto;html=1;strokeColor=default;" parent="dNxyNK7c78bLwvsdeMH5-19" source="dNxyNK7c78bLwvsdeMH5-24" target="dNxyNK7c78bLwvsdeMH5-26" edge="1">
          <mxGeometry relative="1" as="geometry" />
        </mxCell>
        <mxCell id="dNxyNK7c78bLwvsdeMH5-22" value="Power BI" style="swimlane;html=1;startSize=20;horizontal=0;" parent="dNxyNK7c78bLwvsdeMH5-19" vertex="1">
          <mxGeometry x="20" y="330" width="740" height="170" as="geometry" />
        </mxCell>
        <mxCell id="XMJl6svzH35a2PeT9-Se-32" value="" style="edgeStyle=orthogonalEdgeStyle;rounded=0;orthogonalLoop=1;jettySize=auto;html=1;strokeColor=default;" parent="dNxyNK7c78bLwvsdeMH5-22" source="dNxyNK7c78bLwvsdeMH5-34" edge="1">
          <mxGeometry relative="1" as="geometry">
            <mxPoint x="470" y="82.5" as="targetPoint" />
          </mxGeometry>
        </mxCell>
        <mxCell id="dNxyNK7c78bLwvsdeMH5-34" value="Refresh connections to:&lt;br&gt;¬asset&lt;br&gt;¬cap_tools_data&lt;br&gt;¬port_val_consolidated_miles_bo&lt;br&gt;¬port_val_consolidated_miles_cap&lt;br&gt;¬port_val_contract_miles_cap&lt;br&gt;¬problems_assets&lt;br&gt;¬m_invoice_assets&lt;br&gt;¬US collateral report" style="rounded=0;whiteSpace=wrap;html=1;fontFamily=Helvetica;fontSize=12;fontColor=#000000;align=left;" parent="dNxyNK7c78bLwvsdeMH5-22" vertex="1">
          <mxGeometry x="200" y="15" width="220" height="135" as="geometry" />
        </mxCell>
        <mxCell id="XMJl6svzH35a2PeT9-Se-33" value="Check for errors" style="rounded=0;whiteSpace=wrap;html=1;fontFamily=Helvetica;fontSize=12;fontColor=#000000;align=left;" parent="dNxyNK7c78bLwvsdeMH5-22" vertex="1">
          <mxGeometry x="470" y="60" width="110" height="45" as="geometry" />
        </mxCell>
        <mxCell id="XMJl6svzH35a2PeT9-Se-21" value="Outlook" style="swimlane;html=1;startSize=20;horizontal=0;" parent="dNxyNK7c78bLwvsdeMH5-19" vertex="1">
          <mxGeometry x="20" y="500" width="740" height="110" as="geometry" />
        </mxCell>
        <mxCell id="XMJl6svzH35a2PeT9-Se-23" value="Download US collateral report" style="rounded=0;whiteSpace=wrap;html=1;fontFamily=Helvetica;fontSize=12;fontColor=#000000;align=left;" parent="XMJl6svzH35a2PeT9-Se-21" vertex="1">
          <mxGeometry x="225" y="37.5" width="170" height="35" as="geometry" />
        </mxCell>
        <mxCell id="XMJl6svzH35a2PeT9-Se-28" value="" style="edgeStyle=orthogonalEdgeStyle;rounded=0;orthogonalLoop=1;jettySize=auto;html=1;strokeColor=default;" parent="XMJl6svzH35a2PeT9-Se-21" source="XMJl6svzH35a2PeT9-Se-25" target="XMJl6svzH35a2PeT9-Se-27" edge="1">
          <mxGeometry relative="1" as="geometry" />
        </mxCell>
        <mxCell id="XMJl6svzH35a2PeT9-Se-25" value="Email account managers" style="whiteSpace=wrap;html=1;align=left;fontColor=#000000;rounded=0;" parent="XMJl6svzH35a2PeT9-Se-21" vertex="1">
          <mxGeometry x="450" y="25" width="150" height="60" as="geometry" />
        </mxCell>
        <mxCell id="XMJl6svzH35a2PeT9-Se-27" value="End" style="ellipse;whiteSpace=wrap;html=1;align=center;fontColor=#000000;rounded=0;" parent="XMJl6svzH35a2PeT9-Se-21" vertex="1">
          <mxGeometry x="660" y="32.5" width="45" height="45" as="geometry" />
        </mxCell>
        <mxCell id="XMJl6svzH35a2PeT9-Se-24" value="" style="edgeStyle=orthogonalEdgeStyle;rounded=0;orthogonalLoop=1;jettySize=auto;html=1;strokeColor=default;" parent="dNxyNK7c78bLwvsdeMH5-19" source="XMJl6svzH35a2PeT9-Se-23" target="dNxyNK7c78bLwvsdeMH5-34" edge="1">
          <mxGeometry relative="1" as="geometry" />
        </mxCell>
        <mxCell id="XMJl6svzH35a2PeT9-Se-35" value="" style="edgeStyle=orthogonalEdgeStyle;rounded=0;orthogonalLoop=1;jettySize=auto;html=1;strokeColor=default;" parent="dNxyNK7c78bLwvsdeMH5-19" source="XMJl6svzH35a2PeT9-Se-33" target="XMJl6svzH35a2PeT9-Se-25" edge="1">
          <mxGeometry relative="1" as="geometry" />
        </mxCell>
        <mxCell id="XMJl6svzH35a2PeT9-Se-36" style="edgeStyle=orthogonalEdgeStyle;rounded=0;orthogonalLoop=1;jettySize=auto;html=1;strokeColor=default;" parent="dNxyNK7c78bLwvsdeMH5-19" source="dNxyNK7c78bLwvsdeMH5-24" target="dNxyNK7c78bLwvsdeMH5-34" edge="1">
          <mxGeometry relative="1" as="geometry">
            <Array as="points">
              <mxPoint x="330" y="75" />
            </Array>
          </mxGeometry>
        </mxCell>
        <mxCell id="XMJl6svzH35a2PeT9-Se-38" style="edgeStyle=orthogonalEdgeStyle;rounded=0;orthogonalLoop=1;jettySize=auto;html=1;entryX=0;entryY=0.5;entryDx=0;entryDy=0;strokeColor=default;" parent="dNxyNK7c78bLwvsdeMH5-19" source="dNxyNK7c78bLwvsdeMH5-26" target="dNxyNK7c78bLwvsdeMH5-34" edge="1">
          <mxGeometry relative="1" as="geometry" />
        </mxCell>
      </root>
    </mxGraphModel>
  </diagram>
</mxfile>
